<svg width="27" height="27" viewBox="0 0 27 27" fill="none" xmlns="http://www.w3.org/2000/svg">
<path d="M13.5 2.53125C11.595 2.53111 9.72284 3.02709 8.0678 3.97036C6.41276 4.91364 5.03192 6.27169 4.06123 7.91079C3.09054 9.5499 2.56346 11.4136 2.5319 13.3183C2.50034 15.223 2.96538 17.1031 3.88123 18.7734L2.98474 21.9375C2.90111 22.2258 2.89641 22.5313 2.97113 22.8221C3.04585 23.1128 3.19725 23.3782 3.40953 23.5905C3.6218 23.8027 3.88717 23.9541 4.17792 24.0288C4.46868 24.1036 4.77416 24.0989 5.06248 24.0152L8.22654 23.1187C9.69286 23.9224 11.3235 24.3802 12.9939 24.4571C14.6642 24.5341 16.33 24.2281 17.864 23.5626C19.398 22.8971 20.7595 21.8897 21.8445 20.6174C22.9295 19.3451 23.7092 17.8416 24.1242 16.2217C24.5391 14.6019 24.5782 12.9087 24.2384 11.2714C23.8987 9.63421 23.1892 8.09631 22.164 6.7753C21.1389 5.45429 19.8253 4.38514 18.3237 3.64957C16.822 2.914 15.1721 2.53148 13.5 2.53125ZM13.5 22.7812C11.8339 22.7797 10.1987 22.3318 8.76443 21.484C8.63208 21.4102 8.48352 21.3703 8.33201 21.368C8.2536 21.3681 8.17556 21.3787 8.09998 21.3996L4.59842 22.4016L5.60037 18.9C5.63119 18.7892 5.6396 18.6734 5.62512 18.5593C5.61063 18.4452 5.57353 18.3351 5.51599 18.2355C4.47117 16.4744 4.03812 14.4171 4.2843 12.3842C4.53047 10.3513 5.44204 8.45692 6.87703 6.99606C8.31201 5.5352 10.1898 4.58992 12.218 4.30747C14.2462 4.02501 16.3109 4.42123 18.0904 5.43442C19.8699 6.4476 21.2644 8.02086 22.0567 9.90915C22.849 11.7974 22.9945 13.8947 22.4706 15.8743C21.9468 17.8539 20.783 19.6047 19.1604 20.854C17.5379 22.1033 15.5477 22.7809 13.5 22.7812ZM14.7656 13.5C14.7656 13.7503 14.6914 13.995 14.5523 14.2031C14.4132 14.4113 14.2156 14.5735 13.9843 14.6693C13.753 14.7651 13.4986 14.7901 13.2531 14.7413C13.0076 14.6925 12.782 14.5719 12.605 14.3949C12.428 14.2179 12.3075 13.9924 12.2587 13.7469C12.2098 13.5014 12.2349 13.2469 12.3307 13.0157C12.4265 12.7844 12.5887 12.5867 12.7968 12.4477C13.005 12.3086 13.2497 12.2344 13.5 12.2344C13.8356 12.2344 14.1576 12.3677 14.3949 12.6051C14.6323 12.8424 14.7656 13.1643 14.7656 13.5ZM9.7031 13.5C9.7031 13.7503 9.62888 13.995 9.48981 14.2031C9.35074 14.4113 9.15307 14.5735 8.92181 14.6693C8.69055 14.7651 8.43607 14.7901 8.19057 14.7413C7.94506 14.6925 7.71955 14.5719 7.54255 14.3949C7.36555 14.2179 7.24501 13.9924 7.19617 13.7469C7.14734 13.5014 7.1724 13.2469 7.26819 13.0157C7.36399 12.7844 7.5262 12.5867 7.73433 12.4477C7.94247 12.3086 8.18716 12.2344 8.43748 12.2344C8.77314 12.2344 9.09506 12.3677 9.33241 12.6051C9.56976 12.8424 9.7031 13.1643 9.7031 13.5ZM19.8281 13.5C19.8281 13.7503 19.7539 13.995 19.6148 14.2031C19.4757 14.4113 19.2781 14.5735 19.0468 14.6693C18.8155 14.7651 18.5611 14.7901 18.3156 14.7413C18.0701 14.6925 17.8445 14.5719 17.6675 14.3949C17.4905 14.2179 17.37 13.9924 17.3212 13.7469C17.2723 13.5014 17.2974 13.2469 17.3932 13.0157C17.489 12.7844 17.6512 12.5867 17.8593 12.4477C18.0675 12.3086 18.3122 12.2344 18.5625 12.2344C18.8981 12.2344 19.2201 12.3677 19.4574 12.6051C19.6948 12.8424 19.8281 13.1643 19.8281 13.5Z" fill="#2563EB" stroke="#2563EB" stroke-width="0.2"/>
</svg>
