<svg width="27" height="27" viewBox="0 0 27 27" fill="none" xmlns="http://www.w3.org/2000/svg">
<path d="M13.5 2.53125C11.595 2.53111 9.72287 3.02709 8.06783 3.97036C6.41279 4.91364 5.03195 6.27169 4.06126 7.91079C3.09057 9.5499 2.56349 11.4136 2.53193 13.3183C2.50037 15.223 2.96541 17.1031 3.88126 18.7734L2.98477 21.9375C2.90114 22.2258 2.89644 22.5313 2.97116 22.8221C3.04588 23.1128 3.19728 23.3782 3.40956 23.5905C3.62183 23.8027 3.8872 23.9541 4.17795 24.0288C4.46871 24.1036 4.77419 24.0989 5.06251 24.0152L8.22657 23.1187C9.69289 23.9224 11.3235 24.3802 12.9939 24.4571C14.6642 24.5341 16.33 24.2281 17.864 23.5626C19.398 22.8971 20.7595 21.8897 21.8445 20.6174C22.9295 19.3451 23.7093 17.8416 24.1242 16.2217C24.5391 14.6019 24.5782 12.9087 24.2385 11.2714C23.8987 9.63421 23.1892 8.09631 22.164 6.7753C21.1389 5.45429 19.8253 4.38514 18.3237 3.64957C16.8221 2.914 15.1721 2.53148 13.5 2.53125ZM13.5 22.7812C11.8339 22.7797 10.1987 22.3318 8.76446 21.484C8.63211 21.4102 8.48355 21.3703 8.33204 21.368C8.25363 21.3681 8.17559 21.3787 8.10001 21.3996L4.59845 22.4016L5.6004 18.9C5.63122 18.7892 5.63963 18.6734 5.62515 18.5593C5.61066 18.4452 5.57356 18.3351 5.51602 18.2355C4.4712 16.4744 4.03815 14.4171 4.28433 12.3842C4.5305 10.3513 5.44207 8.45692 6.87706 6.99606C8.31204 5.5352 10.1899 4.58992 12.2181 4.30747C14.2462 4.02501 16.3109 4.42123 18.0904 5.43442C19.87 6.4476 21.2645 8.02086 22.0567 9.90915C22.849 11.7974 22.9945 13.8947 22.4707 15.8743C21.9468 17.8539 20.783 19.6047 19.1604 20.854C17.5379 22.1033 15.5478 22.7809 13.5 22.7812ZM14.7656 13.5C14.7656 13.7503 14.6914 13.995 14.5523 14.2031C14.4133 14.4113 14.2156 14.5735 13.9843 14.6693C13.7531 14.7651 13.4986 14.7901 13.2531 14.7413C13.0076 14.6925 12.7821 14.5719 12.6051 14.3949C12.4281 14.2179 12.3075 13.9924 12.2587 13.7469C12.2099 13.5014 12.2349 13.2469 12.3307 13.0157C12.4265 12.7844 12.5887 12.5867 12.7969 12.4477C13.005 12.3086 13.2497 12.2344 13.5 12.2344C13.8357 12.2344 14.1576 12.3677 14.3949 12.6051C14.6323 12.8424 14.7656 13.1643 14.7656 13.5ZM9.70313 13.5C9.70313 13.7503 9.62891 13.995 9.48984 14.2031C9.35077 14.4113 9.15311 14.5735 8.92184 14.6693C8.69058 14.7651 8.4361 14.7901 8.1906 14.7413C7.94509 14.6925 7.71958 14.5719 7.54258 14.3949C7.36558 14.2179 7.24504 13.9924 7.1962 13.7469C7.14737 13.5014 7.17243 13.2469 7.26822 13.0157C7.36402 12.7844 7.52623 12.5867 7.73437 12.4477C7.9425 12.3086 8.18719 12.2344 8.43751 12.2344C8.77317 12.2344 9.09509 12.3677 9.33244 12.6051C9.56979 12.8424 9.70313 13.1643 9.70313 13.5ZM19.8281 13.5C19.8281 13.7503 19.7539 13.995 19.6148 14.2031C19.4758 14.4113 19.2781 14.5735 19.0468 14.6693C18.8156 14.7651 18.5611 14.7901 18.3156 14.7413C18.0701 14.6925 17.8446 14.5719 17.6676 14.3949C17.4906 14.2179 17.37 13.9924 17.3212 13.7469C17.2724 13.5014 17.2974 13.2469 17.3932 13.0157C17.489 12.7844 17.6512 12.5867 17.8594 12.4477C18.0675 12.3086 18.3122 12.2344 18.5625 12.2344C18.8982 12.2344 19.2201 12.3677 19.4574 12.6051C19.6948 12.8424 19.8281 13.1643 19.8281 13.5Z" fill="#AAAAAA"/>
<path d="M13.5 2.53125C11.595 2.53111 9.72287 3.02709 8.06783 3.97036C6.41279 4.91364 5.03195 6.27169 4.06126 7.91079C3.09057 9.5499 2.56349 11.4136 2.53193 13.3183C2.50037 15.223 2.96541 17.1031 3.88126 18.7734L2.98477 21.9375C2.90114 22.2258 2.89644 22.5313 2.97116 22.8221C3.04588 23.1128 3.19728 23.3782 3.40956 23.5905C3.62183 23.8027 3.8872 23.9541 4.17795 24.0288C4.46871 24.1036 4.77419 24.0989 5.06251 24.0152L8.22657 23.1187C9.69289 23.9224 11.3235 24.3802 12.9939 24.4571C14.6642 24.5341 16.33 24.2281 17.864 23.5626C19.398 22.8971 20.7595 21.8897 21.8445 20.6174C22.9295 19.3451 23.7093 17.8416 24.1242 16.2217C24.5391 14.6019 24.5782 12.9087 24.2385 11.2714C23.8987 9.63421 23.1892 8.09631 22.164 6.7753C21.1389 5.45429 19.8253 4.38514 18.3237 3.64957C16.8221 2.914 15.1721 2.53148 13.5 2.53125ZM13.5 22.7812C11.8339 22.7797 10.1987 22.3318 8.76446 21.484C8.63211 21.4102 8.48355 21.3703 8.33204 21.368C8.25363 21.3681 8.17559 21.3787 8.10001 21.3996L4.59845 22.4016L5.6004 18.9C5.63122 18.7892 5.63963 18.6734 5.62515 18.5593C5.61066 18.4452 5.57356 18.3351 5.51602 18.2355C4.4712 16.4744 4.03815 14.4171 4.28433 12.3842C4.5305 10.3513 5.44207 8.45692 6.87706 6.99606C8.31204 5.5352 10.1899 4.58992 12.2181 4.30747C14.2462 4.02501 16.3109 4.42123 18.0904 5.43442C19.87 6.4476 21.2645 8.02086 22.0567 9.90915C22.849 11.7974 22.9945 13.8947 22.4707 15.8743C21.9468 17.8539 20.783 19.6047 19.1604 20.854C17.5379 22.1033 15.5478 22.7809 13.5 22.7812ZM14.7656 13.5C14.7656 13.7503 14.6914 13.995 14.5523 14.2031C14.4133 14.4113 14.2156 14.5735 13.9843 14.6693C13.7531 14.7651 13.4986 14.7901 13.2531 14.7413C13.0076 14.6925 12.7821 14.5719 12.6051 14.3949C12.4281 14.2179 12.3075 13.9924 12.2587 13.7469C12.2099 13.5014 12.2349 13.2469 12.3307 13.0157C12.4265 12.7844 12.5887 12.5867 12.7969 12.4477C13.005 12.3086 13.2497 12.2344 13.5 12.2344C13.8357 12.2344 14.1576 12.3677 14.3949 12.6051C14.6323 12.8424 14.7656 13.1643 14.7656 13.5ZM9.70313 13.5C9.70313 13.7503 9.62891 13.995 9.48984 14.2031C9.35077 14.4113 9.15311 14.5735 8.92184 14.6693C8.69058 14.7651 8.4361 14.7901 8.1906 14.7413C7.94509 14.6925 7.71958 14.5719 7.54258 14.3949C7.36558 14.2179 7.24504 13.9924 7.1962 13.7469C7.14737 13.5014 7.17243 13.2469 7.26822 13.0157C7.36402 12.7844 7.52623 12.5867 7.73437 12.4477C7.9425 12.3086 8.18719 12.2344 8.43751 12.2344C8.77317 12.2344 9.09509 12.3677 9.33244 12.6051C9.56979 12.8424 9.70313 13.1643 9.70313 13.5ZM19.8281 13.5C19.8281 13.7503 19.7539 13.995 19.6148 14.2031C19.4758 14.4113 19.2781 14.5735 19.0468 14.6693C18.8156 14.7651 18.5611 14.7901 18.3156 14.7413C18.0701 14.6925 17.8446 14.5719 17.6676 14.3949C17.4906 14.2179 17.37 13.9924 17.3212 13.7469C17.2724 13.5014 17.2974 13.2469 17.3932 13.0157C17.489 12.7844 17.6512 12.5867 17.8594 12.4477C18.0675 12.3086 18.3122 12.2344 18.5625 12.2344C18.8982 12.2344 19.2201 12.3677 19.4574 12.6051C19.6948 12.8424 19.8281 13.1643 19.8281 13.5Z" fill="black" fill-opacity="0.2"/>
<path d="M13.5 2.53125C11.595 2.53111 9.72287 3.02709 8.06783 3.97036C6.41279 4.91364 5.03195 6.27169 4.06126 7.91079C3.09057 9.5499 2.56349 11.4136 2.53193 13.3183C2.50037 15.223 2.96541 17.1031 3.88126 18.7734L2.98477 21.9375C2.90114 22.2258 2.89644 22.5313 2.97116 22.8221C3.04588 23.1128 3.19728 23.3782 3.40956 23.5905C3.62183 23.8027 3.8872 23.9541 4.17795 24.0288C4.46871 24.1036 4.77419 24.0989 5.06251 24.0152L8.22657 23.1187C9.69289 23.9224 11.3235 24.3802 12.9939 24.4571C14.6642 24.5341 16.33 24.2281 17.864 23.5626C19.398 22.8971 20.7595 21.8897 21.8445 20.6174C22.9295 19.3451 23.7093 17.8416 24.1242 16.2217C24.5391 14.6019 24.5782 12.9087 24.2385 11.2714C23.8987 9.63421 23.1892 8.09631 22.164 6.7753C21.1389 5.45429 19.8253 4.38514 18.3237 3.64957C16.8221 2.914 15.1721 2.53148 13.5 2.53125ZM13.5 22.7812C11.8339 22.7797 10.1987 22.3318 8.76446 21.484C8.63211 21.4102 8.48355 21.3703 8.33204 21.368C8.25363 21.3681 8.17559 21.3787 8.10001 21.3996L4.59845 22.4016L5.6004 18.9C5.63122 18.7892 5.63963 18.6734 5.62515 18.5593C5.61066 18.4452 5.57356 18.3351 5.51602 18.2355C4.4712 16.4744 4.03815 14.4171 4.28433 12.3842C4.5305 10.3513 5.44207 8.45692 6.87706 6.99606C8.31204 5.5352 10.1899 4.58992 12.2181 4.30747C14.2462 4.02501 16.3109 4.42123 18.0904 5.43442C19.87 6.4476 21.2645 8.02086 22.0567 9.90915C22.849 11.7974 22.9945 13.8947 22.4707 15.8743C21.9468 17.8539 20.783 19.6047 19.1604 20.854C17.5379 22.1033 15.5478 22.7809 13.5 22.7812ZM14.7656 13.5C14.7656 13.7503 14.6914 13.995 14.5523 14.2031C14.4133 14.4113 14.2156 14.5735 13.9843 14.6693C13.7531 14.7651 13.4986 14.7901 13.2531 14.7413C13.0076 14.6925 12.7821 14.5719 12.6051 14.3949C12.4281 14.2179 12.3075 13.9924 12.2587 13.7469C12.2099 13.5014 12.2349 13.2469 12.3307 13.0157C12.4265 12.7844 12.5887 12.5867 12.7969 12.4477C13.005 12.3086 13.2497 12.2344 13.5 12.2344C13.8357 12.2344 14.1576 12.3677 14.3949 12.6051C14.6323 12.8424 14.7656 13.1643 14.7656 13.5ZM9.70313 13.5C9.70313 13.7503 9.62891 13.995 9.48984 14.2031C9.35077 14.4113 9.15311 14.5735 8.92184 14.6693C8.69058 14.7651 8.4361 14.7901 8.1906 14.7413C7.94509 14.6925 7.71958 14.5719 7.54258 14.3949C7.36558 14.2179 7.24504 13.9924 7.1962 13.7469C7.14737 13.5014 7.17243 13.2469 7.26822 13.0157C7.36402 12.7844 7.52623 12.5867 7.73437 12.4477C7.9425 12.3086 8.18719 12.2344 8.43751 12.2344C8.77317 12.2344 9.09509 12.3677 9.33244 12.6051C9.56979 12.8424 9.70313 13.1643 9.70313 13.5ZM19.8281 13.5C19.8281 13.7503 19.7539 13.995 19.6148 14.2031C19.4758 14.4113 19.2781 14.5735 19.0468 14.6693C18.8156 14.7651 18.5611 14.7901 18.3156 14.7413C18.0701 14.6925 17.8446 14.5719 17.6676 14.3949C17.4906 14.2179 17.37 13.9924 17.3212 13.7469C17.2724 13.5014 17.2974 13.2469 17.3932 13.0157C17.489 12.7844 17.6512 12.5867 17.8594 12.4477C18.0675 12.3086 18.3122 12.2344 18.5625 12.2344C18.8982 12.2344 19.2201 12.3677 19.4574 12.6051C19.6948 12.8424 19.8281 13.1643 19.8281 13.5Z" stroke="#AAAAAA" stroke-width="0.2"/>
<path d="M13.5 2.53125C11.595 2.53111 9.72287 3.02709 8.06783 3.97036C6.41279 4.91364 5.03195 6.27169 4.06126 7.91079C3.09057 9.5499 2.56349 11.4136 2.53193 13.3183C2.50037 15.223 2.96541 17.1031 3.88126 18.7734L2.98477 21.9375C2.90114 22.2258 2.89644 22.5313 2.97116 22.8221C3.04588 23.1128 3.19728 23.3782 3.40956 23.5905C3.62183 23.8027 3.8872 23.9541 4.17795 24.0288C4.46871 24.1036 4.77419 24.0989 5.06251 24.0152L8.22657 23.1187C9.69289 23.9224 11.3235 24.3802 12.9939 24.4571C14.6642 24.5341 16.33 24.2281 17.864 23.5626C19.398 22.8971 20.7595 21.8897 21.8445 20.6174C22.9295 19.3451 23.7093 17.8416 24.1242 16.2217C24.5391 14.6019 24.5782 12.9087 24.2385 11.2714C23.8987 9.63421 23.1892 8.09631 22.164 6.7753C21.1389 5.45429 19.8253 4.38514 18.3237 3.64957C16.8221 2.914 15.1721 2.53148 13.5 2.53125ZM13.5 22.7812C11.8339 22.7797 10.1987 22.3318 8.76446 21.484C8.63211 21.4102 8.48355 21.3703 8.33204 21.368C8.25363 21.3681 8.17559 21.3787 8.10001 21.3996L4.59845 22.4016L5.6004 18.9C5.63122 18.7892 5.63963 18.6734 5.62515 18.5593C5.61066 18.4452 5.57356 18.3351 5.51602 18.2355C4.4712 16.4744 4.03815 14.4171 4.28433 12.3842C4.5305 10.3513 5.44207 8.45692 6.87706 6.99606C8.31204 5.5352 10.1899 4.58992 12.2181 4.30747C14.2462 4.02501 16.3109 4.42123 18.0904 5.43442C19.87 6.4476 21.2645 8.02086 22.0567 9.90915C22.849 11.7974 22.9945 13.8947 22.4707 15.8743C21.9468 17.8539 20.783 19.6047 19.1604 20.854C17.5379 22.1033 15.5478 22.7809 13.5 22.7812ZM14.7656 13.5C14.7656 13.7503 14.6914 13.995 14.5523 14.2031C14.4133 14.4113 14.2156 14.5735 13.9843 14.6693C13.7531 14.7651 13.4986 14.7901 13.2531 14.7413C13.0076 14.6925 12.7821 14.5719 12.6051 14.3949C12.4281 14.2179 12.3075 13.9924 12.2587 13.7469C12.2099 13.5014 12.2349 13.2469 12.3307 13.0157C12.4265 12.7844 12.5887 12.5867 12.7969 12.4477C13.005 12.3086 13.2497 12.2344 13.5 12.2344C13.8357 12.2344 14.1576 12.3677 14.3949 12.6051C14.6323 12.8424 14.7656 13.1643 14.7656 13.5ZM9.70313 13.5C9.70313 13.7503 9.62891 13.995 9.48984 14.2031C9.35077 14.4113 9.15311 14.5735 8.92184 14.6693C8.69058 14.7651 8.4361 14.7901 8.1906 14.7413C7.94509 14.6925 7.71958 14.5719 7.54258 14.3949C7.36558 14.2179 7.24504 13.9924 7.1962 13.7469C7.14737 13.5014 7.17243 13.2469 7.26822 13.0157C7.36402 12.7844 7.52623 12.5867 7.73437 12.4477C7.9425 12.3086 8.18719 12.2344 8.43751 12.2344C8.77317 12.2344 9.09509 12.3677 9.33244 12.6051C9.56979 12.8424 9.70313 13.1643 9.70313 13.5ZM19.8281 13.5C19.8281 13.7503 19.7539 13.995 19.6148 14.2031C19.4758 14.4113 19.2781 14.5735 19.0468 14.6693C18.8156 14.7651 18.5611 14.7901 18.3156 14.7413C18.0701 14.6925 17.8446 14.5719 17.6676 14.3949C17.4906 14.2179 17.37 13.9924 17.3212 13.7469C17.2724 13.5014 17.2974 13.2469 17.3932 13.0157C17.489 12.7844 17.6512 12.5867 17.8594 12.4477C18.0675 12.3086 18.3122 12.2344 18.5625 12.2344C18.8982 12.2344 19.2201 12.3677 19.4574 12.6051C19.6948 12.8424 19.8281 13.1643 19.8281 13.5Z" stroke="black" stroke-opacity="0.2" stroke-width="0.2"/>
</svg>
