<svg width="22" height="21" viewBox="0 0 22 21" fill="none" xmlns="http://www.w3.org/2000/svg">
<path d="M21.1787 17.6042V11.5207C21.1787 9.53085 21.1787 8.53596 20.7657 7.65654C20.3526 6.77711 19.5749 6.11611 18.0194 4.7941L16.8428 3.79411C13.8667 1.2647 12.3787 0 10.5893 0C8.79997 0 7.31193 1.2647 4.33585 3.79411L3.15926 4.7941C1.60379 6.11611 0.826062 6.77711 0.413031 7.65654C0 8.53596 0 9.53085 0 11.5207V17.6042C0 18.6526 0 19.1767 0.179124 19.5902C0.417961 20.1415 0.876067 20.5796 1.45266 20.8079C1.88511 20.9792 2.43333 20.9792 3.52978 20.9792H3.92197C4.65144 20.9792 5.01618 20.9792 5.31542 20.9026C6.12748 20.6944 6.76178 20.0879 6.97937 19.3115C7.05956 19.0254 7.05956 18.6766 7.05956 17.9791V15.3542C7.05956 13.4902 8.63984 11.9792 10.5893 11.9792C12.5388 11.9792 14.1191 13.4902 14.1191 15.3542V17.9791C14.1191 18.6766 14.1191 19.0254 14.1992 19.3115C14.4169 20.0879 15.0512 20.6944 15.8633 20.9026C16.1625 20.9792 16.5272 20.9792 17.2567 20.9792H17.6489C18.7454 20.9792 19.2935 20.9792 19.726 20.8079C20.3026 20.5796 20.7607 20.1415 20.9996 19.5902C21.1787 19.1767 21.1787 18.6526 21.1787 17.6042Z" fill="#AAAAAA"/>
<path d="M21.1787 17.6042V11.5207C21.1787 9.53085 21.1787 8.53596 20.7657 7.65654C20.3526 6.77711 19.5749 6.11611 18.0194 4.7941L16.8428 3.79411C13.8667 1.2647 12.3787 0 10.5893 0C8.79997 0 7.31193 1.2647 4.33585 3.79411L3.15926 4.7941C1.60379 6.11611 0.826062 6.77711 0.413031 7.65654C0 8.53596 0 9.53085 0 11.5207V17.6042C0 18.6526 0 19.1767 0.179124 19.5902C0.417961 20.1415 0.876067 20.5796 1.45266 20.8079C1.88511 20.9792 2.43333 20.9792 3.52978 20.9792H3.92197C4.65144 20.9792 5.01618 20.9792 5.31542 20.9026C6.12748 20.6944 6.76178 20.0879 6.97937 19.3115C7.05956 19.0254 7.05956 18.6766 7.05956 17.9791V15.3542C7.05956 13.4902 8.63984 11.9792 10.5893 11.9792C12.5388 11.9792 14.1191 13.4902 14.1191 15.3542V17.9791C14.1191 18.6766 14.1191 19.0254 14.1992 19.3115C14.4169 20.0879 15.0512 20.6944 15.8633 20.9026C16.1625 20.9792 16.5272 20.9792 17.2567 20.9792H17.6489C18.7454 20.9792 19.2935 20.9792 19.726 20.8079C20.3026 20.5796 20.7607 20.1415 20.9996 19.5902C21.1787 19.1767 21.1787 18.6526 21.1787 17.6042Z" fill="black" fill-opacity="0.2"/>
</svg>
