<svg width="22" height="25" viewBox="0 0 22 25" fill="none" xmlns="http://www.w3.org/2000/svg">
<path d="M13.5547 21.1289C13.3182 22.5773 12.0307 23.6846 10.4785 23.6846C8.92655 23.6844 7.63976 22.5772 7.40332 21.1289C8.33656 21.2088 9.35996 21.2549 10.4785 21.2549C11.5971 21.2549 12.6213 21.2088 13.5547 21.1289ZM10.4785 0C14.6066 0 17.9539 3.26251 17.9541 7.28711V10.4111C17.9542 11.5373 18.3285 12.6332 19.0215 13.5342L20.6045 15.5918C21.2098 16.379 21.0329 17.4568 20.1064 17.8467C18.4388 18.5483 15.3661 19.4336 10.4785 19.4336C5.59125 19.4335 2.51922 18.5483 0.851562 17.8467C-0.0751109 17.4568 -0.251953 16.3791 0.353516 15.5918L1.93652 13.5342C2.62957 12.6332 3.00381 11.5373 3.00391 10.4111V7.28711C3.00412 3.26264 6.3506 0.000208582 10.4785 0Z" fill="#2563EB"/>
</svg>
