<svg width="26" height="26" viewBox="0 0 26 26" fill="none" xmlns="http://www.w3.org/2000/svg">
<path fill-rule="evenodd" clip-rule="evenodd" d="M12.9835 16.625C8.79355 16.625 5.21545 17.2585 5.21545 19.7956C5.21545 22.3326 8.77085 22.9888 12.9835 22.9888C17.1734 22.9888 20.7505 22.3543 20.7505 19.8183C20.7505 17.2822 17.1961 16.625 12.9835 16.625Z" fill="#AAAAAA"/>
<path fill-rule="evenodd" clip-rule="evenodd" d="M12.9835 16.625C8.79355 16.625 5.21545 17.2585 5.21545 19.7956C5.21545 22.3326 8.77085 22.9888 12.9835 22.9888C17.1734 22.9888 20.7505 22.3543 20.7505 19.8183C20.7505 17.2822 17.1961 16.625 12.9835 16.625Z" fill="black" fill-opacity="0.2"/>
<path fill-rule="evenodd" clip-rule="evenodd" d="M12.9835 16.625C8.79355 16.625 5.21545 17.2585 5.21545 19.7956C5.21545 22.3326 8.77085 22.9888 12.9835 22.9888C17.1734 22.9888 20.7505 22.3543 20.7505 19.8183C20.7505 17.2822 17.1961 16.625 12.9835 16.625Z" stroke="#AAAAAA" stroke-width="1.5" stroke-linecap="round" stroke-linejoin="round"/>
<path fill-rule="evenodd" clip-rule="evenodd" d="M12.9835 16.625C8.79355 16.625 5.21545 17.2585 5.21545 19.7956C5.21545 22.3326 8.77085 22.9888 12.9835 22.9888C17.1734 22.9888 20.7505 22.3543 20.7505 19.8183C20.7505 17.2822 17.1961 16.625 12.9835 16.625Z" stroke="black" stroke-opacity="0.2" stroke-width="1.5" stroke-linecap="round" stroke-linejoin="round"/>
<path fill-rule="evenodd" clip-rule="evenodd" d="M12.9835 13.0062C15.7331 13.0062 17.9617 10.7766 17.9617 8.027C17.9617 5.2774 15.7331 3.04883 12.9835 3.04883C10.2339 3.04883 8.0043 5.2774 8.0043 8.027C7.99502 10.7673 10.2091 12.9969 12.9484 13.0062H12.9835Z" fill="#AAAAAA"/>
<path fill-rule="evenodd" clip-rule="evenodd" d="M12.9835 13.0062C15.7331 13.0062 17.9617 10.7766 17.9617 8.027C17.9617 5.2774 15.7331 3.04883 12.9835 3.04883C10.2339 3.04883 8.0043 5.2774 8.0043 8.027C7.99502 10.7673 10.2091 12.9969 12.9484 13.0062H12.9835Z" fill="black" fill-opacity="0.2"/>
<path fill-rule="evenodd" clip-rule="evenodd" d="M12.9835 13.0062C15.7331 13.0062 17.9617 10.7766 17.9617 8.027C17.9617 5.2774 15.7331 3.04883 12.9835 3.04883C10.2339 3.04883 8.0043 5.2774 8.0043 8.027C7.99502 10.7673 10.2091 12.9969 12.9484 13.0062H12.9835Z" stroke="#AAAAAA" stroke-width="1.42857" stroke-linecap="round" stroke-linejoin="round"/>
<path fill-rule="evenodd" clip-rule="evenodd" d="M12.9835 13.0062C15.7331 13.0062 17.9617 10.7766 17.9617 8.027C17.9617 5.2774 15.7331 3.04883 12.9835 3.04883C10.2339 3.04883 8.0043 5.2774 8.0043 8.027C7.99502 10.7673 10.2091 12.9969 12.9484 13.0062H12.9835Z" stroke="black" stroke-opacity="0.2" stroke-width="1.42857" stroke-linecap="round" stroke-linejoin="round"/>
</svg>
